<svg xmlns="http://www.w3.org/2000/svg" width="41.026" height="40" viewBox="0 0 41.026 40">
  <g id="adobe-photoshop" transform="translate(0 -12.8)">
    <path id="Path_54" data-name="Path 54" d="M7.521,12.8H33.645a7.4,7.4,0,0,1,7.381,7.381V45.419A7.4,7.4,0,0,1,33.645,52.8H7.381A7.4,7.4,0,0,1,0,45.419v-25.1A7.532,7.532,0,0,1,7.521,12.8" transform="translate(0 0)" fill="#00c8ff"/>
    <path id="Path_55" data-name="Path 55" d="M27.487,34.133H52.926a6.014,6.014,0,0,1,6.014,6.014V64.7a6.014,6.014,0,0,1-6.014,6.014H27.347A6.014,6.014,0,0,1,21.333,64.7V40.287a6.128,6.128,0,0,1,6.154-6.154" transform="translate(-19.624 -19.624)" fill="#001d26"/>
    <path id="Path_56" data-name="Path 56" d="M140.219,150.594c-1.347,0-1.752.674-1.752,1.213s.337,1.011,2.105,1.954c2.628,1.263,3.5,2.493,3.5,4.312,0,2.695-2.021,4.177-4.851,4.177a7.159,7.159,0,0,1-3.5-.741c-.135-.067-.135-.135-.135-.269v-2.493c0-.135.067-.2.2-.135a5.992,5.992,0,0,0,3.369,1.011c1.347,0,1.886-.539,1.886-1.263,0-.606-.421-1.145-2.105-2.021-2.358-1.145-3.369-2.291-3.369-4.244,0-2.156,1.684-3.975,4.632-3.975a7.929,7.929,0,0,1,3.032.472.244.244,0,0,1,.145.314.237.237,0,0,1-.01.023v2.291c0,.135-.067.2-.269.135a6.173,6.173,0,0,0-2.863-.758h-.017Zm-6.232-1.347c0,4.312-3.1,6.131-6.939,6.131h-1.263v6.468a.177.177,0,0,1-.2.2h-2.661a.177.177,0,0,1-.2-.147.175.175,0,0,1,0-.055l.067-18.191c0-.135.269-.2.421-.2,1.078-.067,2.695-.067,4.312-.067C132.151,143.385,133.987,145.945,133.987,149.247Zm-3.065,0c0-2.156-1.347-3.234-3.571-3.234a10.494,10.494,0,0,0-1.617.067v6.535h1.347C129.052,152.615,130.922,151.941,130.922,149.247Z" transform="translate(-112.884 -120.121)" fill="#fff"/>
    <path id="Path_57" data-name="Path 57" d="M140.219,150.594c-1.347,0-1.752.674-1.752,1.213s.337,1.011,2.105,1.954c2.628,1.263,3.5,2.493,3.5,4.312,0,2.695-2.021,4.177-4.851,4.177a7.159,7.159,0,0,1-3.5-.741c-.135-.067-.135-.135-.135-.269v-2.493c0-.135.067-.2.2-.135a5.992,5.992,0,0,0,3.369,1.011c1.347,0,1.886-.539,1.886-1.263,0-.606-.421-1.145-2.105-2.021-2.358-1.145-3.369-2.291-3.369-4.244,0-2.156,1.684-3.975,4.632-3.975a7.929,7.929,0,0,1,3.032.472.244.244,0,0,1,.145.314.237.237,0,0,1-.01.023v2.291c0,.135-.067.2-.269.135a6.173,6.173,0,0,0-2.863-.758h-.017Zm-6.232-1.347c0,4.312-3.1,6.131-6.939,6.131h-1.263v6.468a.177.177,0,0,1-.2.2h-2.661a.177.177,0,0,1-.2-.147.175.175,0,0,1,0-.055l.067-18.191c0-.135.269-.2.421-.2,1.078-.067,2.695-.067,4.312-.067C132.151,143.385,133.987,145.945,133.987,149.247Zm-3.065,0c0-2.156-1.347-3.234-3.571-3.234a10.494,10.494,0,0,0-1.617.067v6.535h1.347C129.052,152.615,130.922,151.941,130.922,149.247Z" transform="translate(-112.884 -120.121)" fill="#00c8ff" opacity="0.15"/>
  </g>
</svg>
