<svg xmlns="http://www.w3.org/2000/svg" width="41.026" height="40" viewBox="0 0 41.026 40">
  <g id="adobe-illustrator" transform="translate(0 -12.801)">
    <path id="Path_50" data-name="Path 50" d="M7.521,12.8H33.5a7.532,7.532,0,0,1,7.521,7.521V45.28A7.532,7.532,0,0,1,33.5,52.8H7.521A7.532,7.532,0,0,1,0,45.28V20.322A7.533,7.533,0,0,1,7.521,12.8" fill="#ff7c00"/>
    <path id="Path_51" data-name="Path 51" d="M27.487,34.134h25.3a6.128,6.128,0,0,1,6.154,6.154V64.561a6.128,6.128,0,0,1-6.154,6.154h-25.3a6.128,6.128,0,0,1-6.154-6.154V40.288a6.128,6.128,0,0,1,6.154-6.154" transform="translate(-19.624 -19.624)" fill="#261300"/>
    <path id="Path_52" data-name="Path 52" d="M138.378,145.4c-.066-.133-.066-.133-.2-.133h-3.456c-.066,0-.133,0-.133.133a5.2,5.2,0,0,1-.133,1.4l-4.718,16.547c-.066.2,0,.266.133.266h2.459c.2,0,.266-.066.266-.2l1.329-4.984h5.25l1.4,4.984c.066.133.133.133.266.133h2.725c.133,0,.133-.066.133-.2Zm-3.721,10.367c.681-2.592,1.595-5.914,1.927-7.842.4,1.994,1.528,5.981,1.994,7.842Zm11.364-9.237a1.728,1.728,0,1,1,3.456,0h0a1.6,1.6,0,0,1-1.728,1.728A1.676,1.676,0,0,1,146.02,146.528Zm.2,3.788a.174.174,0,0,1,.2-.2h2.592a.174.174,0,0,1,.2.2v13.092c0,.133,0,.2-.2.2h-2.592a.174.174,0,0,1-.2-.2Z" transform="translate(-119.319 -121.422)" fill="#fff"/>
    <path id="Path_53" data-name="Path 53" d="M138.378,145.4c-.066-.133-.066-.133-.2-.133h-3.456c-.066,0-.133,0-.133.133a5.2,5.2,0,0,1-.133,1.4l-4.718,16.547c-.066.2,0,.266.133.266h2.459c.2,0,.266-.066.266-.2l1.329-4.984h5.25l1.4,4.984c.066.133.133.133.266.133h2.725c.133,0,.133-.066.133-.2Zm-3.721,10.367c.681-2.592,1.595-5.914,1.927-7.842.4,1.994,1.528,5.981,1.994,7.842Zm11.364-9.237a1.728,1.728,0,1,1,3.456,0h0a1.6,1.6,0,0,1-1.728,1.728A1.676,1.676,0,0,1,146.02,146.528Zm.2,3.788a.174.174,0,0,1,.2-.2h2.592a.174.174,0,0,1,.2.2v13.092c0,.133,0,.2-.2.2h-2.592a.174.174,0,0,1-.2-.2Z" transform="translate(-119.319 -121.422)" fill="#ff7c00" opacity="0.15"/>
  </g>
</svg>
