<svg id="adobe-xd" xmlns="http://www.w3.org/2000/svg" width="40.753" height="39.734" viewBox="0 0 40.753 39.734">
  <path id="Path_58" data-name="Path 58" d="M33.536,39.734H7.216A7.21,7.21,0,0,1,0,32.517V7.216A7.21,7.21,0,0,1,7.216,0h26.32a7.21,7.21,0,0,1,7.216,7.216v25.3A7.21,7.21,0,0,1,33.536,39.734Z" fill="#ff26be"/>
  <path id="Path_59" data-name="Path 59" d="M135.392,140.537H110.363a6.174,6.174,0,0,1-6.163-6.163v-24.01a6.174,6.174,0,0,1,6.163-6.163h25.012a6.163,6.163,0,0,1,6.163,6.163v23.994a6.153,6.153,0,0,1-6.147,6.18Z" transform="translate(-102.501 -102.501)" fill="#2e001f"/>
  <path id="Path_60" data-name="Path 60" d="M475.2,601.73l4.755,9.135c.085.135.034.272-.1.272h-2.955a.333.333,0,0,1-.357-.22c-1.087-2.241-2.191-4.483-3.329-6.894h-.034c-1.019,2.276-2.14,4.67-3.226,6.912a.328.328,0,0,1-.306.187h-2.8c-.17,0-.187-.135-.1-.238l4.652-8.865-4.5-8.966a.137.137,0,0,1,.1-.238h2.921c.17,0,.238.034.3.187,1.069,2.241,2.157,4.551,3.175,6.809h.034c.985-2.241,2.072-4.568,3.125-6.793.085-.135.135-.22.306-.22H479.6c.135,0,.187.1.1.238Zm5.588,2.768c0-3.956,2.633-7.047,6.809-7.047a7.484,7.484,0,0,1,.884.034v-4.5a.169.169,0,0,1,.169-.169h2.683c.135,0,.17.051.17.135V608.54a12.13,12.13,0,0,0,.085,1.664c0,.1-.034.135-.135.187a10.109,10.109,0,0,1-4.348.985c-3.686.015-6.318-2.259-6.317-6.879Zm7.691-4.346a2.552,2.552,0,0,0-.985-.17c-2.14,0-3.634,1.646-3.634,4.382,0,3.125,1.529,4.382,3.448,4.382a3.184,3.184,0,0,0,1.172-.187v-8.406Z" transform="translate(-459.082 -583.137)" fill="#ffd9f2"/>
</svg>
