<svg id="bootstrap" xmlns="http://www.w3.org/2000/svg" width="39.734" height="39.734" viewBox="0 0 39.734 39.734">
  <path id="Path_61" data-name="Path 61" d="M36.423,0H3.311A3.311,3.311,0,0,0,0,3.311V36.423a3.311,3.311,0,0,0,3.311,3.311H36.423a3.312,3.312,0,0,0,3.311-3.311V3.311A3.312,3.312,0,0,0,36.423,0ZM29.489,27.9v0a5.159,5.159,0,0,1-1.528,2.043A7.809,7.809,0,0,1,25.3,31.305a13.1,13.1,0,0,1-3.862.5H10.791V8.632H22.054a8.014,8.014,0,0,1,5,1.424,5.08,5.08,0,0,1,1.886,4.321,5.141,5.141,0,0,1-.859,3,5.5,5.5,0,0,1-2.45,1.914v.076a5,5,0,0,1,3.227,2.013,6.786,6.786,0,0,1,1.089,3.952,6.626,6.626,0,0,1-.5,2.53l.041.043Z" fill="#543b79"/>
  <path id="Path_62" data-name="Path 62" d="M19.016,17.463a4.088,4.088,0,0,0-2.866-.924H9v7.232h7.175a4.014,4.014,0,0,0,2.864-.96A3.554,3.554,0,0,0,20.062,20.1a3.4,3.4,0,0,0-1.026-2.632Zm-1-4.674h.008A2.957,2.957,0,0,0,19,10.4a3.012,3.012,0,0,0-.879-2.467,3.933,3.933,0,0,0-2.53-.717H8.968v6.4H15.59a3.643,3.643,0,0,0,2.424-.821Z" transform="translate(5.879 4.73)" fill="#543b79"/>
  <path id="Path_63" data-name="Path 63" d="M15.594,5.214H6.518V28.392h9.076v-3.31H10.6V17.851h4.992V14.922H10.576v-6.4h5.018Z" transform="translate(4.273 3.418)" fill="#dedede"/>
  <path id="Path_64" data-name="Path 64" d="M19.867,0H3.311A3.311,3.311,0,0,0,0,3.311V36.423a3.311,3.311,0,0,0,3.311,3.311H19.867V31.81H10.791V8.632h9.076V0Z" fill="#493369"/>
  <path id="Path_65" data-name="Path 65" d="M13.977,12.847H8.985v7.232h4.992Z" transform="translate(5.89 8.422)" fill="#493369"/>
  <path id="Path_66" data-name="Path 66" d="M13.987,7.215H8.969v6.4h5.018Z" transform="translate(5.88 4.73)" fill="#493369"/>
</svg>
