<svg xmlns="http://www.w3.org/2000/svg" width="18.124" height="18.124" viewBox="0 0 18.124 18.124">
  <path id="external-link-alt-solid" d="M15.292,11.328H14.159a.566.566,0,0,0-.566.566v3.965H2.266V4.531h5.1a.566.566,0,0,0,.566-.566V2.832a.566.566,0,0,0-.566-.566H1.7A1.7,1.7,0,0,0,0,3.965v12.46a1.7,1.7,0,0,0,1.7,1.7h12.46a1.7,1.7,0,0,0,1.7-1.7V11.894A.566.566,0,0,0,15.292,11.328ZM17.274,0H12.743a.851.851,0,0,0-.6,1.451l1.265,1.265L4.779,11.341a.85.85,0,0,0,0,1.2l.8.8a.85.85,0,0,0,1.2,0l8.623-8.626,1.264,1.263a.851.851,0,0,0,1.451-.6V.85A.85.85,0,0,0,17.274,0Z" fill="#c4c4c4"/>
</svg>
