<svg xmlns="http://www.w3.org/2000/svg" width="36.244" height="36" viewBox="0 0 36.244 36">
  <path id="facebook-square-brands_1_" data-name="facebook-square-brands (1)" d="M32.361,32H3.883A3.87,3.87,0,0,0,0,35.857V64.143A3.87,3.87,0,0,0,3.883,68h11.1V55.761H9.89V50h5.1V45.609c0-4.994,2.993-7.753,7.578-7.753a31.08,31.08,0,0,1,4.492.389v4.9h-2.53c-2.493,0-3.27,1.536-3.27,3.112V50h5.564l-.89,5.761H21.257V68h11.1a3.87,3.87,0,0,0,3.883-3.857V35.857A3.87,3.87,0,0,0,32.361,32Z" transform="translate(0 -32)" fill="#c4c4c4"/>
</svg>
