<svg xmlns="http://www.w3.org/2000/svg" width="40.579" height="39.734" viewBox="0 0 40.579 39.734">
  <g id="github-skill" transform="translate(-1 -1.646)">
    <path id="Path_74" data-name="Path 74" d="M21.289,1.646a20.382,20.382,0,0,0-6.411,39.7c1.014.188,1.384-.441,1.384-.982,0-.483-.018-1.764-.027-3.464C10.589,38.131,9.4,34.168,9.4,34.168a5.377,5.377,0,0,0-2.251-2.979c-1.843-1.264.139-1.24.139-1.24a4.261,4.261,0,0,1,3.107,2.1c1.812,3.113,4.75,2.213,5.906,1.691a4.351,4.351,0,0,1,1.287-2.723c-4.5-.515-9.24-2.261-9.24-10.066a7.9,7.9,0,0,1,2.088-5.468,7.34,7.34,0,0,1,.2-5.389s1.7-.547,5.58,2.088a19.139,19.139,0,0,1,10.16,0c3.872-2.635,5.574-2.088,5.574-2.088a7.336,7.336,0,0,1,.2,5.389,7.881,7.881,0,0,1,2.087,5.468c0,7.824-4.744,9.546-9.264,10.051a4.871,4.871,0,0,1,1.377,3.773c0,2.724-.024,4.919-.024,5.587,0,.546.366,1.18,1.395.979a20.384,20.384,0,0,0-6.428-39.7Z" transform="translate(0 0)" fill="#3e77bf"/>
    <path id="Path_75" data-name="Path 75" d="M21.289,1.646a20.382,20.382,0,0,0-6.411,39.7c1.014.188,1.384-.441,1.384-.982,0-.483-.018-1.764-.027-3.464C10.589,38.131,9.4,34.168,9.4,34.168a5.377,5.377,0,0,0-2.251-2.979c-1.843-1.264.139-1.24.139-1.24a4.261,4.261,0,0,1,3.107,2.1c1.812,3.113,4.75,2.213,5.906,1.691a4.351,4.351,0,0,1,1.287-2.723c-4.5-.515-9.24-2.261-9.24-10.066a7.9,7.9,0,0,1,2.088-5.468,7.34,7.34,0,0,1,.2-5.389s1.7-.547,5.58,2.088a19.139,19.139,0,0,1,10.16,0c3.872-2.635,5.574-2.088,5.574-2.088a7.336,7.336,0,0,1,.2,5.389,7.881,7.881,0,0,1,2.087,5.468c0,7.824-4.744,9.546-9.264,10.051a4.871,4.871,0,0,1,1.377,3.773c0,2.724-.024,4.919-.024,5.587,0,.546.366,1.18,1.395.979a20.384,20.384,0,0,0-6.428-39.7Z" transform="translate(0 0)" fill="#3e77bf"/>
    <path id="Path_76" data-name="Path 76" d="M37.135,14.642a7.32,7.32,0,0,1,.18,5.332A7.881,7.881,0,0,1,39.4,25.442c0,7.824-4.744,9.546-9.264,10.051a4.871,4.871,0,0,1,1.377,3.773c0,2.724-.024,4.919-.024,5.587,0,.546.366,1.18,1.395.979A20.421,20.421,0,0,0,45.556,19.619C42.759,16.674,39.645,14.712,37.135,14.642ZM21.957,36.583a3.5,3.5,0,0,1,.8-1.075c-2.469-.283-5-.942-6.794-2.761A8.633,8.633,0,0,0,21.957,36.583Z" transform="translate(-5.169 -4.49)" fill="#114c82"/>
    <path id="Path_77" data-name="Path 77" d="M2.056,23.39a20.269,20.269,0,0,1,35.8-13.132A20.312,20.312,0,1,0,5.807,35.172,20.309,20.309,0,0,1,2.056,23.39Z" transform="translate(0)" fill="#6ca9ea"/>
    <path id="Path_78" data-name="Path 78" d="M40.054,41.31a4.875,4.875,0,0,0-1.377-3.774c4.52-.5,9.264-2.227,9.264-10.05a7.875,7.875,0,0,0-2.088-5.467,7.315,7.315,0,0,0-.2-5.389,2.038,2.038,0,0,0-.646-.04,6.943,6.943,0,0,1-.209,4.055,7.881,7.881,0,0,1,2.087,5.468c0,7.824-4.744,9.546-9.264,10.051A4.871,4.871,0,0,1,39,39.937c0,2.724-.024,4.919-.024,5.587a.965.965,0,0,0,1.057,1.015C40.036,45.618,40.054,43.663,40.054,41.31Z" transform="translate(-12.653 -5.161)" fill="#083e66"/>
    <path id="Path_79" data-name="Path 79" d="M15.683,54c.426.877,1.858,2.978,5.636,2.536-.005-.462-.009-.98-.012-1.549C18.393,55.623,16.672,54.873,15.683,54Z" transform="translate(-5.073 -18.089)" fill="#114c82"/>
    <path id="Path_80" data-name="Path 80" d="M16.411,49.469a5.01,5.01,0,0,0-.728-.863A4.892,4.892,0,0,0,16.411,49.469Z" transform="translate(-5.073 -16.225)" fill="#6ca9ea"/>
  </g>
</svg>
