<svg xmlns="http://www.w3.org/2000/svg" width="37.488" height="36.551" viewBox="0 0 37.488 36.551">
  <path id="github-brands" d="M12.539,37.431c0,.151-.174.272-.393.272-.249.023-.423-.1-.423-.272,0-.151.174-.272.393-.272C12.342,37.136,12.539,37.257,12.539,37.431Zm-2.351-.34c-.053.151.1.325.325.37a.355.355,0,0,0,.469-.151c.045-.151-.1-.325-.325-.393a.388.388,0,0,0-.469.174Zm3.341-.128c-.219.053-.37.2-.348.37.023.151.219.249.446.2s.37-.2.348-.348S13.748,36.94,13.529,36.962ZM18.5,8A18.123,18.123,0,0,0,0,26.442,18.949,18.949,0,0,0,12.811,44.521c.967.174,1.308-.423,1.308-.915,0-.469-.023-3.053-.023-4.641,0,0-5.291,1.134-6.4-2.252,0,0-.862-2.2-2.1-2.766,0,0-1.731-1.187.121-1.164a3.99,3.99,0,0,1,2.917,1.95,4,4,0,0,0,5.51,1.58,4.2,4.2,0,0,1,1.209-2.547c-4.225-.469-8.488-1.081-8.488-8.352a5.728,5.728,0,0,1,1.784-4.452,7.141,7.141,0,0,1,.2-5.132c1.58-.491,5.215,2.041,5.215,2.041a17.855,17.855,0,0,1,9.493,0s3.635-2.54,5.215-2.041a7.138,7.138,0,0,1,.2,5.132,5.875,5.875,0,0,1,1.95,4.452c0,7.294-4.452,7.876-8.677,8.352a4.47,4.47,0,0,1,1.285,3.507c0,2.547-.023,5.7-.023,6.319,0,.491.348,1.088,1.308.915A18.774,18.774,0,0,0,37.488,26.442C37.488,15.959,28.985,8,18.5,8ZM7.346,34.068c-.1.076-.076.249.053.393.121.121.295.174.393.076.1-.076.076-.249-.053-.393C7.619,34.022,7.445,33.97,7.346,34.068Zm-.816-.612c-.053.1.023.219.174.295a.225.225,0,0,0,.325-.053c.053-.1-.023-.219-.174-.295C6.7,33.357,6.583,33.38,6.53,33.456Zm2.449,2.691c-.121.1-.076.325.1.469.174.174.393.2.491.076.1-.1.053-.325-.1-.469C9.3,36.048,9.077,36.025,8.979,36.146Zm-.862-1.111c-.121.076-.121.272,0,.446s.325.249.423.174a.345.345,0,0,0,0-.469C8.435,35.013,8.238,34.937,8.117,35.035Z" transform="translate(0 -8)" fill="#c4c4c4"/>
</svg>
