<svg xmlns="http://www.w3.org/2000/svg" width="18.589" height="18.124" viewBox="0 0 18.589 18.124">
  <path id="github-brands" d="M6.217,22.593c0,.075-.086.135-.195.135s-.21-.049-.21-.135.086-.135.195-.135S6.217,22.507,6.217,22.593Zm-1.166-.169c-.026.075.049.161.161.184a.176.176,0,0,0,.232-.075c.022-.075-.049-.161-.161-.195a.192.192,0,0,0-.232.086Zm1.656-.064c-.109.026-.184.1-.172.184s.109.124.221.1.184-.1.172-.172S6.817,22.35,6.708,22.361ZM9.174,8A8.987,8.987,0,0,0,0,17.144a9.4,9.4,0,0,0,6.352,8.964c.48.086.648-.21.648-.453s-.011-1.514-.011-2.3c0,0-2.623.562-3.174-1.117,0,0-.427-1.091-1.042-1.372,0,0-.858-.588.06-.577a1.978,1.978,0,0,1,1.447.967,1.981,1.981,0,0,0,2.732.783,2.083,2.083,0,0,1,.6-1.263C5.517,20.543,3.4,20.24,3.4,16.635a2.84,2.84,0,0,1,.884-2.207,3.541,3.541,0,0,1,.1-2.545c.783-.244,2.586,1.012,2.586,1.012a8.854,8.854,0,0,1,4.707,0s1.8-1.259,2.586-1.012a3.539,3.539,0,0,1,.1,2.545,2.913,2.913,0,0,1,.967,2.207c0,3.617-2.207,3.905-4.3,4.141a2.216,2.216,0,0,1,.637,1.739c0,1.263-.011,2.826-.011,3.133,0,.244.172.54.648.453a9.309,9.309,0,0,0,6.289-8.957A9.189,9.189,0,0,0,9.174,8ZM3.643,20.926c-.049.037-.037.124.026.195s.146.086.195.037.037-.124-.026-.195S3.691,20.877,3.643,20.926Zm-.4-.3c-.026.049.011.109.086.146a.112.112,0,0,0,.161-.026c.026-.049-.011-.109-.086-.146S3.264,20.585,3.238,20.622Zm1.214,1.334c-.06.049-.037.161.049.232s.195.1.244.037.026-.161-.049-.232S4.5,21.9,4.452,21.956Zm-.427-.551c-.06.037-.06.135,0,.221s.161.124.21.086a.171.171,0,0,0,0-.232C4.182,21.394,4.085,21.357,4.025,21.405Z" transform="translate(0 -8)" fill="#c4c4c4"/>
</svg>
