<svg xmlns="http://www.w3.org/2000/svg" width="35" height="39.734" viewBox="0 0 35 39.734">
  <g id="html" transform="translate(-30)">
    <path id="Path_81" data-name="Path 81" d="M33.182,35.7,30,0H65L61.818,35.7,47.461,39.734" transform="translate(0)" fill="#e34f26"/>
    <path id="Path_82" data-name="Path 82" d="M256,70.758l11.563-3.182L270.279,37H256" transform="translate(-208.461 -34.129)" fill="#ef652a"/>
    <path id="Path_83" data-name="Path 83" d="M125.02,102.847H119.2l-.388-4.5h6.208V94H114l1.164,13.271h9.856Zm-.078,11.408-4.889-1.319-.31-3.492H115.4l.543,6.907,9,2.483Z" transform="translate(-77.481 -86.705)" fill="#ebebeb"/>
    <path id="Path_84" data-name="Path 84" d="M255,102.847v4.424h5.432l-.543,5.665L255,114.255v4.579l9-2.483,1.242-13.5ZM255,94v4.346h10.632L266.02,94Z" transform="translate(-207.539 -86.705)" fill="#fff"/>
  </g>
</svg>
