<svg xmlns="http://www.w3.org/2000/svg" width="37.244" height="37.236" viewBox="0 0 37.244 37.236">
  <path id="instagram-brands_1_" data-name="instagram-brands (1)" d="M18.551,40.9A9.547,9.547,0,1,0,28.1,50.443,9.532,9.532,0,0,0,18.551,40.9Zm0,15.753a6.207,6.207,0,1,1,6.207-6.207A6.218,6.218,0,0,1,18.551,56.649ZM30.715,40.506a2.227,2.227,0,1,1-2.227-2.227A2.222,2.222,0,0,1,30.715,40.506Zm6.323,2.26c-.141-2.983-.823-5.625-3.008-7.8s-4.819-2.858-7.8-3.008c-3.074-.174-12.289-.174-15.363,0-2.975.141-5.617.823-7.8,3S.205,39.774.056,42.757c-.174,3.074-.174,12.289,0,15.363.141,2.983.823,5.625,3.008,7.8s4.819,2.858,7.8,3.008c3.074.174,12.289.174,15.363,0,2.983-.141,5.625-.823,7.8-3.008s2.858-4.819,3.008-7.8C37.213,55.046,37.213,45.84,37.038,42.766ZM33.066,61.419a6.284,6.284,0,0,1-3.54,3.54c-2.451.972-8.267.748-10.976.748s-8.533.216-10.976-.748a6.284,6.284,0,0,1-3.54-3.54c-.972-2.451-.748-8.267-.748-10.976s-.216-8.533.748-10.976a6.284,6.284,0,0,1,3.54-3.54c2.451-.972,8.267-.748,10.976-.748s8.533-.216,10.976.748a6.284,6.284,0,0,1,3.54,3.54c.972,2.451.748,8.267.748,10.976S34.039,58.976,33.066,61.419Z" transform="translate(0.075 -31.825)" fill="#c4c4c4"/>
</svg>
