<svg xmlns="http://www.w3.org/2000/svg" width="28.974" height="39.734" viewBox="0 0 28.974 39.734">
  <g id="java" transform="translate(-3.25)">
    <path id="Path_98" data-name="Path 98" d="M26.111,20.6a.652.652,0,0,1-.147.2c9.844-2.618,6.225-9.227,1.518-7.553a1.352,1.352,0,0,0-.631.492,5.576,5.576,0,0,1,.843-.228C30.074,13.006,33.482,16.73,26.111,20.6ZM5.219,28.451C20.9,31.022,33.8,27.292,29.733,25.438c0,0,1.111.925-1.222,1.641-4.44,1.361-18.477,1.77-22.376.055-1.4-.618,1.228-1.473,2.053-1.652a5.29,5.29,0,0,1,1.354-.154c-1.556-1.111-10.074,2.18-4.324,3.124Z" transform="translate(0 8.509)" fill="#4e7d9d"/>
    <path id="Path_99" data-name="Path 99" d="M30.155,25.525s-.5,1.283-5.848,2.3a57.516,57.516,0,0,1-17.9.278s.906.757,5.553,1.058c7.076.459,17.94-.253,18.2-3.639Zm-9.2-8.571a31.4,31.4,0,0,1-10.5.508c-2.569-.27-.887-1.53-.887-1.53-6.654,2.232,3.7,4.766,13,2.017a4.632,4.632,0,0,1-1.614-1Z" transform="translate(2.069 10.445)" fill="#4e7d9d"/>
    <path id="Path_100" data-name="Path 100" d="M9.475,12.627c-1.833,2.783.9,5.771,4.622,9.17-1.452-3.318-6.376-6.223,0-11.318C22.052,4.129,17.969,0,17.969,0c1.649,6.56-5.8,8.54-8.495,12.627Z" transform="translate(3.698)" fill="#f2941b"/>
    <path id="Path_101" data-name="Path 101" d="M11.332,22.07c-6.04,1.707,3.674,5.235,11.366,1.9a14.123,14.123,0,0,1-2.162-1.07,22.14,22.14,0,0,1-8.134.349c-2.571-.3-1.07-1.182-1.07-1.182ZM23.1,15.63a12.412,12.412,0,0,1,1.8-.972s-2.965.538-5.922.79a53.075,53.075,0,0,1-9.444.1c-4.614-.623,2.526-2.338,2.526-2.338a13.38,13.38,0,0,0-6.18,1.477c-4.035,1.972,9.973,2.869,17.222.94Z" transform="translate(1.251 8.658)" fill="#4e7d9d"/>
    <path id="Path_102" data-name="Path 102" d="M8.526,23.163c-2.664,0-8.243,2.54-3.306,3.351a66.473,66.473,0,0,0,10.7.876q.931,0,1.821-.026V26.312c-.543.012-1.088.017-1.629.017-4.19,0-8.165-.338-9.97-1.132-1.4-.618,1.228-1.473,2.053-1.652a6.045,6.045,0,0,1,1.25-.157c.07,0,.1,0,.1,0a1.81,1.81,0,0,0-1.018-.227Zm-.053,4.942s.912.757,5.553,1.058c1.156.075,2.414.119,3.709.124v-.626q-.646.012-1.285.013a50.745,50.745,0,0,1-7.977-.57Zm0,0ZM11.64,15.933c-4.581,1.536-1.1,3.217,4.551,3.217q.75,0,1.545-.041V17.65c-.482.025-.949.036-1.407.036a36.131,36.131,0,0,1-3.8-.225c-2.569-.268-.887-1.528-.887-1.528Z" transform="translate(0 10.446)" fill="#446d89"/>
    <path id="Path_103" data-name="Path 103" d="M14.039,5.047A21.365,21.365,0,0,0,9.474,9.318c-1.823,2.768.873,5.742,4.565,9.117v-.075c-1.513-3.255-6.209-6.142,0-11.144V5.047Z" transform="translate(3.698 3.309)" fill="#d38118"/>
    <path id="Path_104" data-name="Path 104" d="M11.332,22.07c-4.23,1.2-.733,3.283,4.382,3.283.253,0,.512,0,.772-.017V23.453c-.29.015-.578.022-.866.022a27.354,27.354,0,0,1-3.22-.224c-2.57-.3-1.068-1.18-1.068-1.18Zm.452-8.864a13.942,13.942,0,0,0-5.911,1.483C3.4,15.9,7.7,16.7,13.059,16.7c1.114,0,2.273-.035,3.429-.108v-.975c-1.242.065-2.455.1-3.553.1a27.216,27.216,0,0,1-3.406-.167c-4.616-.623,2.525-2.338,2.525-2.338s-.094-.007-.27-.007Z" transform="translate(1.251 8.658)" fill="#446d89"/>
    <path id="Path_105" data-name="Path 105" d="M20.817,4.9S7.369,8.3,13.791,15.784c1.9,2.207-.5,4.194-.5,4.194s4.811-2.513,2.6-5.659C13.832,11.385,12.25,9.928,20.817,4.9Z" transform="translate(5.772 3.214)" fill="#f2941b"/>
    <path id="Path_106" data-name="Path 106" d="M14.855,6.51c-2.538,1.785-4.258,4.5-1.063,8.22,1.9,2.207-.5,4.194-.5,4.194a8.923,8.923,0,0,0,1.561-1.094V11.748a2.689,2.689,0,0,1,0-3.356V6.51Z" transform="translate(5.772 4.268)" fill="#d38118"/>
  </g>
</svg>
