<svg id="javascript_1_" data-name="javascript (1)" xmlns="http://www.w3.org/2000/svg" width="40" height="40" viewBox="0 0 40 40">
  <rect id="Rectangle_19" data-name="Rectangle 19" width="40" height="40" fill="#f0d91f"/>
  <path id="Path_97" data-name="Path 97" d="M28.619,23.724c-.422-1.591-3.727-1.962-5.987-3.651a5.194,5.194,0,0,1-.942-7.4,5.337,5.337,0,0,1,2.831-1.664l1.167-.147a5.56,5.56,0,0,1,4.692,1.712,6.833,6.833,0,0,1,.97,1.291c-1.194.743-1.194.743-2.906,1.863a2.693,2.693,0,0,0-1.616-1.49,1.9,1.9,0,0,0-2.508,1.093A1.955,1.955,0,0,0,24.4,16.5c.4.919,1.757,1.316,2.975,1.887,3.5,1.42,4.682,2.944,4.972,4.756l-.076-.111a5.6,5.6,0,0,1-.123,2.732c-1.293,4.42-8.495,4.569-11.375,1.662a6.7,6.7,0,0,1-1.341-1.836l3.03-1.74a4.359,4.359,0,0,0,2.906,2.212C27.178,26.282,29.016,25.661,28.619,23.724ZM9.329,24.3a1.42,1.42,0,0,1,.21.324,3.194,3.194,0,0,0,1.374,1.416c.639.2,2.046.346,2.593-.795.333-.576.228-2.449.228-4.488,0-3.213.015-6.4.015-9.611h3.722l-.007.093c0,3.427.02,6.829,0,10.23.008,2.113.187,4-.657,5.54a4.65,4.65,0,0,1-3,2.336A7.286,7.286,0,0,1,8.5,28.673a5.856,5.856,0,0,1-2.192-2.512Z" transform="translate(4.135 7.118)"/>
</svg>
