<svg xmlns="http://www.w3.org/2000/svg" width="41.739" height="40" viewBox="0 0 41.739 40">
  <g id="jquery" transform="translate(0 -0.5)">
    <path id="Path_86" data-name="Path 86" d="M2.445,25.611a2.571,2.571,0,0,0,.134.257,1.468,1.468,0,0,0,.082.144c.045.09.094.177.141.264l.273.459c.05.085.1.169.157.252.1.163.209.323.308.487.045.068.087.136.137.2.191.3.365.544.551.784.132.179.264.355.407.53.047.066.1.132.148.2l.384.466c.047.054.094.117.144.172.17.205.351.4.532.605,0,0,.005.007.009.012a5.276,5.276,0,0,0,.73.755l.007.007c.139.143.278.283.426.423l.176.169c.193.181.386.36.59.534,0,0,.005,0,.009.005l.1.087c.177.155.357.308.539.45l.217.183c.148.118.3.23.452.346l.237.181c.162.122.334.24.5.358.061.043.122.087.184.127l.05.04.489.32.209.139c.256.163.51.317.763.47.073.037.146.077.214.118.188.108.383.217.572.317.1.059.212.11.32.163.13.073.266.144.405.217a.532.532,0,0,1,.1.042l.007-.007c.057.026.111.054.167.082.209.1.426.2.652.3a1.417,1.417,0,0,1,.132.059c.25.11.5.214.76.315.059.017.122.047.183.07.235.089.477.179.717.264l.087.031c.266.09.529.177.8.259.063.017.127.04.193.057a7.89,7.89,0,0,0,.824.235C35.528,40.8,40.72,26.875,40.72,26.875c-4.362,5.652-12.1,7.143-19.433,5.483-.271-.063-.543-.15-.817-.23-.5-.144-.828-.249-1.153-.363l.165.05-.108-.042c-.237-.08-.464-.169-.7-.257-.043-.019-.108-.043-.172-.066l-.019-.005c-.256-.1-.5-.207-.751-.317-.054-.017-.1-.042-.153-.063-.456-.2-.663-.3-.87-.4l.24.106c-.064-.028-.122-.057-.184-.09-.163-.077-.327-.163-.487-.245s-.256-.127-.36-.184l.035.017c-.2-.1-.393-.217-.591-.323-.059-.042-.127-.077-.195-.115-.376-.219-.624-.374-.873-.532l.11.066c-.083-.052-.151-.1-.216-.144l.01.007c-.214-.132-.384-.245-.55-.362-.059-.038-.113-.08-.174-.122-.223-.153-.39-.273-.553-.4l.042.03c-.073-.059-.151-.115-.23-.172-.153-.12-.308-.235-.461-.36l-.205-.163c-.221-.177-.405-.332-.586-.49a.376.376,0,0,0-.057-.047l0,0-.6-.548-.174-.163c-.143-.144-.289-.282-.435-.424l-.169-.174c-.181-.179-.355-.36-.527-.548l-.01-.012-.03-.024c-.184-.2-.363-.405-.544-.614-.047-.054-.09-.111-.139-.169L8.4,23.988c-.137-.17-.33-.423-.522-.68l-.07-.1c-4.066-5.523-5.537-13.146-2.283-19.4L2.652,7.444c-3.7,5.285-3.238,12.158-.412,17.77C2.3,25.352,2.375,25.481,2.445,25.611Z" transform="translate(0 2.447)" fill="#1266a9"/>
    <path id="Path_87" data-name="Path 87" d="M8.578,11.989c-.007-.009-.012-.019-.019-.028l-.016-.021Z" transform="translate(6.314 8.456)"/>
    <path id="Path_88" data-name="Path 88" d="M11.689,21.933l.157.157c.2.191.4.377.609.563l.026.023c.209.184.443.377.685.565l.037.028c.059.04.11.087.167.127.243.188.489.367.744.546l.026.016c.108.078.223.15.344.226.049.031.1.073.157.1.184.118.365.228.551.341.03.012.056.028.083.04.157.1.327.188.49.271.057.035.113.061.172.094.117.057.231.118.343.177l.056.024c.235.115.475.223.71.329.059.023.11.042.16.066.193.083.39.163.583.237.087.03.169.064.25.09.177.066.363.127.539.188l.243.078a5.583,5.583,0,0,0,.781.223c13.8,2.271,16.99-8.3,16.99-8.3-2.875,4.117-8.438,6.078-14.367,4.546-.36-.092-.621-.169-.88-.252l.1.028c-.083-.023-.157-.049-.237-.073-.181-.063-.367-.123-.543-.188l-.25-.094c-.195-.078-.393-.151-.583-.235-.059-.026-.113-.043-.158-.07-.243-.11-.489-.217-.727-.332l-.358-.186-.207-.1c-.16-.083-.308-.17-.461-.259a.97.97,0,0,1-.113-.063l.005,0c-.184-.115-.376-.226-.553-.343-.059-.033-.113-.073-.169-.108l-.362-.235c-.25-.174-.5-.36-.744-.541-.056-.05-.11-.092-.163-.137a16.482,16.482,0,0,1-5.638-7.984,12.342,12.342,0,0,1,.974-9.948L8.974,4.648c-2.68,3.828-2.529,8.944-.442,12.993a15.625,15.625,0,0,0,1.193,1.981,9.11,9.11,0,0,0,1.363,1.687C11.277,21.523,11.479,21.726,11.689,21.933Z" transform="translate(5.147 0.793)" fill="#1266a9"/>
    <path id="Path_89" data-name="Path 89" d="M2.444,18l-.007-.01-.012-.016Z" transform="translate(1.792 12.918)"/>
    <path id="Path_90" data-name="Path 90" d="M6.594,17.248l.017.012,0,.005Z" transform="translate(4.874 12.379)"/>
    <path id="Path_91" data-name="Path 91" d="M14.238,2.112a7.963,7.963,0,0,0-.643,7.718,10.925,10.925,0,0,0,6.275,5.83c.113.043.223.08.339.122l.153.047c.16.05.322.11.487.146,7.619,1.463,9.682-3.892,10.237-4.68-1.814,2.591-4.856,3.214-8.588,2.311a8.265,8.265,0,0,1-.957-.3l.057.019a10.776,10.776,0,0,1-1.141-.47l.066.03a11.221,11.221,0,0,1-1.894-1.155C15.293,9.213,13.231,4.411,15.408.5Z" transform="translate(9.529 0)" fill="#1266a9"/>
  </g>
</svg>
