<svg xmlns="http://www.w3.org/2000/svg" width="37.488" height="37.488" viewBox="0 0 37.488 37.488">
  <path id="linkedin-brands_1_" data-name="linkedin-brands (1)" d="M34.81,32H2.669A2.689,2.689,0,0,0,0,34.7V66.785a2.689,2.689,0,0,0,2.669,2.7H34.81a2.7,2.7,0,0,0,2.678-2.7V34.7A2.7,2.7,0,0,0,34.81,32ZM11.33,64.133H5.774V46.242h5.565v17.89ZM8.552,43.8a3.222,3.222,0,1,1,3.222-3.222A3.223,3.223,0,0,1,8.552,43.8ZM32.158,64.133H26.6v-8.7c0-2.075-.042-4.745-2.887-4.745-2.9,0-3.339,2.259-3.339,4.594v8.853H14.819V46.242h5.33v2.443h.075A5.852,5.852,0,0,1,25.488,45.8c5.623,0,6.669,3.707,6.669,8.527Z" transform="translate(0 -32)" fill="#c4c4c4"/>
</svg>
