<svg xmlns="http://www.w3.org/2000/svg" width="38.611" height="34.566" viewBox="0 0 38.611 34.566">
  <g id="logo" transform="translate(-198.04 -7.15)">
    <path id="Path_46" data-name="Path 46" d="M218.79,14.688,223.2,7.15l18.938,34.566h-7.722l-5.332-9.193h-8.642l4.325-9.009Z" transform="translate(-5.489 0)" fill="#4ec8ed"/>
    <path id="Path_47" data-name="Path 47" d="M212.014,20.31,198.04,45.2h27.7l-3.435-6.376H209.69l6.494-11.4Z" transform="translate(0 -3.481)" fill="#4ec8ed"/>
    <path id="Path_48" data-name="Path 48" d="M104.56,73.88l.919,2.067s10.8,3.905,9.612,16.732c.412.522,1.1,1.611,1.1,1.611S120.2,80.095,104.56,73.88Z" transform="translate(118.53 -60.567)" fill="#4ec8ed"/>
    <path id="Path_49" data-name="Path 49" d="M73.106,94.192,74.437,92.4S72.591,81.049,84.358,75.82c.257-.618.868-1.75.868-1.75S70.885,77.5,73.106,94.192Z" transform="translate(126.912 -60.617)" fill="#4ec8ed"/>
  </g>
</svg>
