<svg xmlns="http://www.w3.org/2000/svg" width="48.661" height="39.734" viewBox="0 0 48.661 39.734">
  <g id="responsive" transform="translate(-2.25 -10.48)">
    <rect id="Rectangle_13" data-name="Rectangle 13" width="46.983" height="30.628" transform="translate(3.089 11.319)" fill="#e8f3fc"/>
    <rect id="Rectangle_14" data-name="Rectangle 14" width="6.913" height="7.428" transform="translate(23.258 41.947)" fill="#c2c3c9"/>
    <rect id="Rectangle_15" data-name="Rectangle 15" width="30.438" height="1.678" transform="translate(11.49 48.536)" fill="#247e93"/>
    <path id="Path_92" data-name="Path 92" d="M50.911,42.786H2.25V10.48H50.911ZM3.928,41.108h45.3V12.18H3.928Z" fill="#247e93"/>
    <rect id="Rectangle_16" data-name="Rectangle 16" width="19.554" height="24.923" transform="translate(7.821 22.438)" fill="#99c3dd"/>
    <circle id="Ellipse_2" data-name="Ellipse 2" cx="0.839" cy="0.839" r="0.839" transform="translate(16.815 44.554)" fill="#e8f3fc"/>
    <rect id="Rectangle_17" data-name="Rectangle 17" width="10.728" height="14.923" transform="translate(12.228 27.125)" fill="#e8f3fc"/>
    <path id="Path_93" data-name="Path 93" d="M22.826,41.211H10.42V24.61H22.826ZM12.1,39.589h9.039v-13.3H12.1Z" transform="translate(0.969 1.676)" fill="#b1d8fa"/>
    <path id="Path_94" data-name="Path 94" d="M21.83,12.69l-1.186,1.186L22,15.218H13.44V20.23h1.678V16.9H22L20.644,18.25l1.186,1.186,3.378-3.378Z" transform="translate(1.328 0.262)" fill="#f4d967"/>
    <path id="Path_95" data-name="Path 95" d="M39.818,30.62H38.14v3.334H31.272l1.342-1.342-1.186-1.186L28.05,34.793l3.378,3.378,1.186-1.186-1.342-1.354h8.546Z" transform="translate(3.061 2.389)" fill="#f4d967"/>
    <rect id="Rectangle_18" data-name="Rectangle 18" width="8.748" height="15.303" transform="translate(35.764 14.932)" fill="#b1d8fa"/>
    <path id="Path_96" data-name="Path 96" d="M41.874,30.691H31.46V13.71H41.874Zm-8.692-1.678h7.059V15.388H33.183Z" transform="translate(3.465 0.383)" fill="#99c3dd"/>
    <circle id="Ellipse_3" data-name="Ellipse 3" cx="0.839" cy="0.839" r="0.839" transform="translate(39.299 26.286)" fill="#e8f3fc"/>
  </g>
</svg>
