<svg xmlns="http://www.w3.org/2000/svg" width="53.127" height="39.734" viewBox="0 0 53.127 39.734">
  <path id="sass" d="M1.219,33.569a2.343,2.343,0,0,0,.137.685,8.414,8.414,0,0,0,1.823,3.278,21.61,21.61,0,0,0,4.043,3.547c1.264.909,2.555,1.8,3.824,2.7.218.155.424.333.661.523-.2.11-.373.207-.549.3a29.374,29.374,0,0,0-4.773,2.956,9.761,9.761,0,0,0-2.373,2.4,5.164,5.164,0,0,0-.6,4.977,2.938,2.938,0,0,0,1,1.292,1.48,1.48,0,0,0,.492.254c.448.105.9.174,1.357.258H7.547a7.985,7.985,0,0,0,3.879-1.418A8.511,8.511,0,0,0,15.008,50.2a9.028,9.028,0,0,0-.053-4.719c-.042-.146-.095-.288-.15-.429s-.12-.278-.2-.454l2.91-1.673.044.037c-.053.173-.109.346-.157.52a11.783,11.783,0,0,0-.493,3.858,7.4,7.4,0,0,0,1.3,3.87,1.877,1.877,0,0,0,2.938.032,6.776,6.776,0,0,0,.672-1.063c.474-.98.914-1.976,1.367-2.967l.079-.181c-.033.469-.071.881-.088,1.293a4.927,4.927,0,0,0,.231,1.9,1.309,1.309,0,0,0,1.109.984,1.394,1.394,0,0,0,1.039-.379,4.394,4.394,0,0,0,1.139-1.354c.8-1.477,1.63-2.945,2.359-4.46.789-1.638,1.478-3.324,2.211-4.99l.121-.3c.173.68.294,1.346.516,1.976a18.68,18.68,0,0,0,.925,2.14.64.64,0,0,1-.083.816c-.955,1.151-1.893,2.316-2.832,3.479a7.816,7.816,0,0,0-.588.8,1.566,1.566,0,0,0-.2.577.735.735,0,0,0,.585.834,4.088,4.088,0,0,0,1.146.082A6.712,6.712,0,0,0,34.4,49.094a3.724,3.724,0,0,0,1.47-4.02,9.34,9.34,0,0,0-.4-1.3.48.48,0,0,1,.052-.507,41.4,41.4,0,0,0,2.886-4.9,1.009,1.009,0,0,1,.129-.2A12.712,12.712,0,0,0,40,42.31c-.386.372-.768.709-1.114,1.081a7.45,7.45,0,0,0-1.766,2.791,3.3,3.3,0,0,0-.2,1.441,1.214,1.214,0,0,0,1.5,1.1,6.813,6.813,0,0,0,4.067-2.507,3.3,3.3,0,0,0,.465-3.01c-.08-.291-.174-.578-.275-.911.4-.125.795-.275,1.2-.367a10.64,10.64,0,0,1,6.221.364,4.7,4.7,0,0,1,2.711,2.357,2.719,2.719,0,0,1-1.038,3.69,2.312,2.312,0,0,0-.374.256.368.368,0,0,0-.087.284c.009.052.146.117.226.116a2.063,2.063,0,0,0,1.147-.474,3.533,3.533,0,0,0,1.63-2.461l.027-.08-.033-.69c-.013-.04.01-.079.007-.109a5.408,5.408,0,0,0-2.206-3.676,8.046,8.046,0,0,0-4.76-1.6,10.748,10.748,0,0,0-4.132.636c-.38.138-.756.3-1.137.454-.051-.093-.106-.182-.151-.273a7.733,7.733,0,0,1-.972-2.489,5.572,5.572,0,0,1-.011-1.952c.149-.622.344-1.233.527-1.846a.45.45,0,0,0-.273-.635,1.208,1.208,0,0,0-.333-.109,5.122,5.122,0,0,0-2.188.162.627.627,0,0,0-.495.5c-.032.161-.1.316-.143.475a11.874,11.874,0,0,1-.623,1.965c-.759,1.58-1.626,3.1-2.513,4.611-.1.163-.2.323-.318.52A6.821,6.821,0,0,1,33.848,40a5.9,5.9,0,0,1-.011-2.318c.143-.574.331-1.137.5-1.7a.4.4,0,0,0-.2-.552,1.174,1.174,0,0,0-.4-.156,4.927,4.927,0,0,0-2.266.185.612.612,0,0,0-.421.46,17.739,17.739,0,0,1-.672,2.08c-1.174,2.691-2.381,5.368-3.588,8.045-.252.559-.547,1.1-.831,1.643a3.814,3.814,0,0,1-.267.389.317.317,0,0,1-.1-.2,5.571,5.571,0,0,1,.027-1.031c.2-1.006.427-2.007.668-3,.2-.823.43-1.639.651-2.457a.771.771,0,0,0-.121-.76,1.136,1.136,0,0,0-1.431-.173l-.181.1.035-.292a4.548,4.548,0,0,0-.068-1.866,1.485,1.485,0,0,0-1.56-1.186,3.35,3.35,0,0,0-1.106.21A8.361,8.361,0,0,0,19,40.192a1.1,1.1,0,0,1-.32.277c-1.224.679-2.452,1.349-3.68,2.022l-1.366.749c-.366-.35-.7-.712-1.077-1.02-1.154-.941-2.326-1.859-3.488-2.789a13.749,13.749,0,0,1-2.791-2.776,4.969,4.969,0,0,1-.969-2.706,6.351,6.351,0,0,1,.97-3.538A13.574,13.574,0,0,1,9.5,26.886a29.836,29.836,0,0,1,4.235-2.809,31.944,31.944,0,0,1,6.494-2.866,17.95,17.95,0,0,1,7.179-.816,7.376,7.376,0,0,1,2.762.8,2.849,2.849,0,0,1,1.451,1.572,3.932,3.932,0,0,1,.069,2.2,8.406,8.406,0,0,1-2.2,3.829,14.856,14.856,0,0,1-6.073,3.847,16.7,16.7,0,0,1-4.132.881,7.781,7.781,0,0,1-3.379-.407,4.4,4.4,0,0,1-1.861-1.264c-.091-.106-.206-.22-.375-.121a.321.321,0,0,0-.139.414,4.058,4.058,0,0,0,.322.778,4.43,4.43,0,0,0,1.474,1.4A7.211,7.211,0,0,0,19,35.329a18.435,18.435,0,0,0,5.778-.736,14.174,14.174,0,0,0,6.933-4.182,10.649,10.649,0,0,0,2.928-6.1,5.906,5.906,0,0,0-.552-3.361,6.076,6.076,0,0,0-2.651-2.592A11.223,11.223,0,0,0,26.213,17H24.389a18.878,18.878,0,0,0-6.408,1.385,44.016,44.016,0,0,0-4.6,1.99,29.732,29.732,0,0,0-8.765,6.276,13.09,13.09,0,0,0-2.891,4.566c-.176.51-.344,1.057-.47,1.585m11.78,15.239A6.726,6.726,0,0,1,10.642,52.7,5.445,5.445,0,0,1,7.9,54.063a2.01,2.01,0,0,1-1.14-.08,1.163,1.163,0,0,1-.655-1.191A4.308,4.308,0,0,1,6.752,50.6a7.844,7.844,0,0,1,2.006-2.2,30.744,30.744,0,0,1,3.922-2.643l.1-.042a6.883,6.883,0,0,1,.253,2.33Zm10.645-8.2a14.236,14.236,0,0,1-.4,1.789,52.755,52.755,0,0,1-2.235,5.913,10.2,10.2,0,0,1-.581,1.023.714.714,0,0,1-.12.141c-.245.242-.476.229-.6-.087a6.662,6.662,0,0,1-.308-1.149,6.09,6.09,0,0,1-.055-.8,10.061,10.061,0,0,1,1.581-5.238,4.9,4.9,0,0,1,1.522-1.715,2.653,2.653,0,0,1,.675-.3c.36-.1.581.065.521.426Zm7.263,9.253,2.61-3.048C33.663,47.178,31.739,49.438,30.944,49.094Zm8.337-2.051c-.184.106-.385.182-.575.28-.173.09-.23,0-.235-.15a1.009,1.009,0,0,1,.039-.305A6.562,6.562,0,0,1,40.477,43.7l.068-.035a2.8,2.8,0,0,1-1.264,3.378Z" transform="translate(-1.219 -17)" fill="#cb6699" fill-rule="evenodd"/>
</svg>
