<svg xmlns="http://www.w3.org/2000/svg" width="42.453" height="34.48" viewBox="0 0 42.453 34.48">
  <path id="twitter-brands_1_" data-name="twitter-brands (1)" d="M38.089,56.675c.027.377.027.754.027,1.131,0,11.5-8.755,24.755-24.755,24.755A24.587,24.587,0,0,1,0,78.656a18,18,0,0,0,2.1.108,17.425,17.425,0,0,0,10.8-3.717,8.716,8.716,0,0,1-8.135-6.034,10.974,10.974,0,0,0,1.643.135,9.2,9.2,0,0,0,2.29-.3,8.7,8.7,0,0,1-6.977-8.539V60.2a8.763,8.763,0,0,0,3.933,1.1A8.714,8.714,0,0,1,2.963,49.671a24.731,24.731,0,0,0,17.94,9.1,9.822,9.822,0,0,1-.215-1.993A8.709,8.709,0,0,1,35.746,50.83a17.13,17.13,0,0,0,5.522-2.1,8.677,8.677,0,0,1-3.825,4.795,17.442,17.442,0,0,0,5.01-1.347A18.7,18.7,0,0,1,38.089,56.675Z" transform="translate(0 -48.082)" fill="#c4c4c4"/>
</svg>
